<svg width="159" height="29" viewBox="0 0 159 29" fill="none" xmlns="http://www.w3.org/2000/svg">
<g clip-path="url(#clip0_14_3590)">
<g clip-path="url(#clip1_14_3590)">
<g clip-path="url(#clip2_14_3590)">
<mask id="mask0_14_3590" style="mask-type:luminance" maskUnits="userSpaceOnUse" x="0" y="1" width="39" height="28">
<path d="M0.0154419 1.01221H38.4551V28.2929H0.0154419V1.01221Z" fill="white"/>
</mask>
<g mask="url(#mask0_14_3590)">
<path fill-rule="evenodd" clip-rule="evenodd" d="M26.446 11.2963L32.3361 6.89867V9.55122C32.3361 9.55122 38.4199 10.4584 38.4551 17.6613C38.3503 24.2445 32.4853 25.6756 29.8322 25.7288C24.1768 25.7103 20.9538 21.7837 20.7556 17.8155C20.5574 13.847 20.598 10.6028 20.5112 8.91695C20.4244 7.23088 18.983 4.86572 16.0661 5.01409C12.9893 4.87458 11.5737 8.15532 11.3648 8.91695C11.225 9.90013 11.0636 11.0856 11.0636 12.1106C10.0381 12.1106 8.85103 12.1037 7.75961 12.483C6.75652 12.8016 3.6145 14.8348 3.82415 17.6615C4.03355 20.488 5.95344 21.9411 7.75961 22.0457C9.09545 22.1505 12.6692 22.0457 14.9371 22.0457V19.0577L20.3018 23.8954L14.9371 28.293V25.7288C14.9371 25.7288 10.194 25.747 7.75961 25.7288C5.32524 25.7103 0.193282 24.5499 0.0189087 17.6613C-0.155718 10.7729 6.32122 8.73717 7.12912 8.45764C7.37761 7.68082 9.01017 0.995779 16.0661 1.01224C23.5134 1.10542 24.5936 7.63119 24.6304 8.91669C24.6657 10.1394 24.9479 17.5823 24.9561 17.661C25.1233 19.2704 26.5856 21.6614 29.8322 21.7312C32.4503 21.7312 34.5461 20.0024 34.6496 17.5083C34.5968 14.5651 32.3358 13.6344 32.3358 13.6344V16.217L26.446 11.2963Z" fill="#3391EF"/>
</g>
<path fill-rule="evenodd" clip-rule="evenodd" d="M46.1873 23.3357L47.6072 20.1937C49.1308 21.3012 51.4023 22.0737 53.5706 22.0737C56.0492 22.0737 57.0561 21.2495 57.0561 20.1423C57.0561 16.7684 46.549 19.0864 46.549 12.3903C46.549 9.32575 49.027 6.77601 54.1648 6.77601C56.4362 6.77601 58.7597 7.31684 60.4379 8.3727L59.1473 11.5405C57.4693 10.5877 55.7398 10.1241 54.1389 10.1241C51.6601 10.1241 50.705 11.0513 50.705 12.1841C50.705 15.5064 61.2126 13.2144 61.2126 19.8331C61.2126 22.8465 58.7084 25.4218 53.545 25.4218C50.6794 25.4218 47.7881 24.5718 46.1873 23.3357ZM71.5887 18.7259V25.1126H67.4063V18.6742L60.4098 7.08516H64.8504L69.6785 15.0944L74.5059 7.08516H78.6109L71.5887 18.7259ZM95.9834 7.08514V25.1126H92.5503L83.5402 14.1674V25.1126H79.4093V7.08514H82.8691L91.8531 18.0306V7.08514H95.9834ZM98.3563 16.0988C98.3563 10.6648 102.539 6.77588 108.167 6.77588C111.29 6.77588 113.898 7.90921 115.602 9.96926L112.917 12.4418C111.704 11.0512 110.18 10.3298 108.373 10.3298C104.991 10.3298 102.59 12.6995 102.59 16.0988C102.59 19.4983 104.991 21.8677 108.373 21.8677C110.18 21.8677 111.704 21.1466 112.917 19.7302L115.602 22.2025C113.898 24.2886 111.29 25.4219 108.141 25.4219C102.539 25.4219 98.3563 21.533 98.3563 16.0988ZM127.862 18.0818L124.997 11.1801L122.131 18.0818H127.862ZM129.179 21.2497H120.789L119.188 25.1128H114.902L122.957 7.08504H127.088L135.168 25.1128H130.779L129.179 21.2497ZM143.866 10.4847H140.458V16.7684H143.866C146.422 16.7684 147.713 15.5839 147.713 13.6264C147.713 11.6436 146.422 10.4847 143.866 10.4847ZM147.79 25.1127L144.305 20.0907H144.098H140.458V25.1127H136.276V7.08519H144.098C148.926 7.08519 151.946 9.58303 151.946 13.6264C151.946 16.3306 150.578 18.3137 148.229 19.3181L152.282 25.1127H147.79ZM154.474 25.1126V7.08514H158.657V25.1126H154.474Z" fill="white"/>
</g>
</g>
</g>
<defs>
<clipPath id="clip0_14_3590">
<rect width="159" height="27.3798" fill="white" transform="translate(0 0.810059)"/>
</clipPath>
<clipPath id="clip1_14_3590">
<rect width="159" height="27.3798" fill="white" transform="translate(0 0.810059)"/>
</clipPath>
<clipPath id="clip2_14_3590">
<rect width="158.979" height="27.3798" fill="white" transform="translate(0.015625 0.810059)"/>
</clipPath>
</defs>
</svg>
